<?xml version="1.0" encoding="iso-8859-1"?>
<!-- Generator: Adobe Illustrator 19.0.0, SVG Export Plug-In . SVG Version: 6.00 Build 0)  -->
<svg version="1.1" id="Capa_1" xmlns="http://www.w3.org/2000/svg" xmlns:xlink="http://www.w3.org/1999/xlink" x="0px" y="0px"
	 viewBox="0 0 496 496" style="enable-background:new 0 0 496 496; fill: #ffffff;" xml:space="preserve">
<g>
	<g>
		<g>
			<path d="M456,128h-32.408C419.416,56.736,360.288,0,288,0S156.584,56.736,152.408,128H120c-22.056,0-40,17.944-40,40v137.448
				C34.672,313.104,0,352.528,0,400c0,52.936,43.064,96,96,96c35.44,0,66.384-19.352,83.008-48H456c22.056,0,40-17.944,40-40V168
				C496,145.944,478.056,128,456,128z M288,16c63.464,0,115.448,49.56,119.592,112h-24c-4.088-49.2-45.36-88-95.592-88
				s-91.504,38.8-95.592,88h-24C172.552,65.56,224.536,16,288,16z M367.592,128H208.408c4.024-40.368,38.184-72,79.592-72
				C329.408,56,363.568,87.632,367.592,128z M96,480c-44.112,0-80-35.888-80-80s35.888-80,80-80s80,35.888,80,80S140.112,480,96,480
				z M480,408.008C480,421.24,469.232,432,456,432H186.4c3.56-10.024,5.6-20.768,5.6-32c0-52.936-43.064-96-96-96v-53.08l152,47.96
				v5.128c0,13.232,10.768,24,24,24h32c13.232,0,24-10.768,24-24v-4.168l152-48.856V408.008z M264,304v-40h48v40
				c0,4.416-3.592,8-8,8h-32C267.592,312,264,308.416,264,304z M480,234.168l-152,48.856V248h-80v34.088l-152-47.96v-66.136
				C96,154.768,106.768,144,120,144h336c13.232,0,24,10.768,24,24V234.168z"/>
			<path d="M80,368h32c4.416,0,8,3.592,8,8.008h16C136,362.776,125.232,352,112,352h-8v-16H88v16h-8c-13.232,0-24,10.776-24,24.008
				V384c0,13.232,10.768,24,24,24h32c4.416,0,8,3.592,8,8.008V424c0,4.416-3.592,8-8,8H80c-4.416,0-8-3.584-8-8H56
				c0,13.232,10.768,24,24,24h8v16h16v-16h8c13.232,0,24-10.768,24-24v-7.992C136,402.776,125.232,392,112,392H80
				c-4.416,0-8-3.584-8-8v-7.992C72,371.592,75.592,368,80,368z"/>
			<rect x="248" y="344" width="16" height="16"/>
			<rect x="280" y="344" width="16" height="16"/>
			<rect x="312" y="344" width="16" height="16"/>
		</g>
	</g>
</g>
<g>
</g>
<g>
</g>
<g>
</g>
<g>
</g>
<g>
</g>
<g>
</g>
<g>
</g>
<g>
</g>
<g>
</g>
<g>
</g>
<g>
</g>
<g>
</g>
<g>
</g>
<g>
</g>
<g>
</g>
</svg>
